<svg width="280" height="85" viewBox="0 0 280 85" fill="none" xmlns="http://www.w3.org/2000/svg">
<path d="M0 20C0 8.9543 8.95431 0 20 0H260C271.046 0 280 8.95431 280 20V65C280 76.0457 271.046 85 260 85H20C8.95431 85 0 76.0457 0 65V20Z" fill="url(#paint0_linear_393_172)"/>
<path d="M96.9721 35.4545L100.488 46.5057H100.623L104.145 35.4545H107.555L102.54 50H98.5772L93.5559 35.4545H96.9721ZM109.248 50V39.0909H112.274V50H109.248ZM110.768 37.6847C110.318 37.6847 109.933 37.5355 109.611 37.2372C109.293 36.9342 109.135 36.572 109.135 36.1506C109.135 35.7339 109.293 35.3764 109.611 35.0781C109.933 34.7751 110.318 34.6236 110.768 34.6236C111.218 34.6236 111.602 34.7751 111.919 35.0781C112.241 35.3764 112.402 35.7339 112.402 36.1506C112.402 36.572 112.241 36.9342 111.919 37.2372C111.602 37.5355 111.218 37.6847 110.768 37.6847ZM119.669 50.2131C118.547 50.2131 117.581 49.9858 116.771 49.5312C115.967 49.072 115.346 48.4233 114.911 47.5852C114.475 46.7424 114.257 45.7457 114.257 44.5952C114.257 43.473 114.475 42.4882 114.911 41.6406C115.346 40.7931 115.959 40.1326 116.75 39.6591C117.546 39.1856 118.478 38.9489 119.548 38.9489C120.268 38.9489 120.938 39.0649 121.558 39.2969C122.183 39.5241 122.728 39.8674 123.192 40.3267C123.661 40.786 124.025 41.3636 124.286 42.0597C124.546 42.7509 124.676 43.5606 124.676 44.4886V45.3196H115.465V43.4446H121.828C121.828 43.009 121.734 42.6231 121.544 42.2869C121.355 41.9508 121.092 41.688 120.756 41.4986C120.424 41.3045 120.039 41.2074 119.598 41.2074C119.139 41.2074 118.732 41.3139 118.377 41.527C118.026 41.7353 117.752 42.017 117.553 42.3722C117.354 42.7225 117.252 43.1132 117.247 43.544V45.3267C117.247 45.8665 117.347 46.3329 117.546 46.7259C117.749 47.1188 118.036 47.4219 118.405 47.6349C118.774 47.848 119.212 47.9545 119.719 47.9545C120.055 47.9545 120.363 47.9072 120.642 47.8125C120.922 47.7178 121.161 47.5758 121.36 47.3864C121.558 47.197 121.71 46.965 121.814 46.6903L124.612 46.875C124.47 47.5473 124.179 48.1345 123.739 48.6364C123.303 49.1335 122.74 49.5218 122.048 49.8011C121.362 50.0758 120.569 50.2131 119.669 50.2131ZM128.725 50L125.756 39.0909H128.817L130.507 46.4205H130.607L132.368 39.0909H135.372L137.162 46.3778H137.254L138.916 39.0909H141.97L139.009 50H135.806L133.931 43.1392H133.796L131.921 50H128.725ZM148.27 50V35.4545H154.009C155.112 35.4545 156.052 35.6652 156.828 36.0866C157.605 36.5033 158.197 37.0833 158.604 37.8267C159.016 38.5653 159.222 39.4176 159.222 40.3835C159.222 41.3494 159.013 42.2017 158.597 42.9403C158.18 43.679 157.576 44.2543 156.786 44.6662C156 45.0781 155.048 45.2841 153.931 45.2841H150.273V42.8196H153.433C154.025 42.8196 154.513 42.7178 154.896 42.5142C155.285 42.3059 155.574 42.0194 155.763 41.6548C155.957 41.2855 156.054 40.8617 156.054 40.3835C156.054 39.9006 155.957 39.4792 155.763 39.1193C155.574 38.7547 155.285 38.473 154.896 38.2741C154.508 38.0705 154.016 37.9688 153.419 37.9688H151.345V50H148.27ZM161.162 50V39.0909H164.096V40.9943H164.209C164.408 40.3172 164.742 39.8059 165.211 39.4602C165.68 39.1098 166.219 38.9347 166.83 38.9347C166.982 38.9347 167.145 38.9441 167.32 38.9631C167.495 38.982 167.649 39.008 167.782 39.0412V41.7259C167.64 41.6832 167.443 41.6454 167.192 41.6122C166.941 41.5791 166.712 41.5625 166.503 41.5625C166.058 41.5625 165.661 41.6596 165.31 41.8537C164.965 42.0431 164.69 42.3082 164.486 42.6491C164.287 42.9901 164.188 43.383 164.188 43.8281V50H161.162ZM173.767 50.2131C172.664 50.2131 171.71 49.9787 170.905 49.5099C170.105 49.0365 169.487 48.3783 169.051 47.5355C168.616 46.688 168.398 45.7055 168.398 44.5881C168.398 43.4612 168.616 42.4763 169.051 41.6335C169.487 40.786 170.105 40.1278 170.905 39.6591C171.71 39.1856 172.664 38.9489 173.767 38.9489C174.87 38.9489 175.822 39.1856 176.622 39.6591C177.427 40.1278 178.048 40.786 178.483 41.6335C178.919 42.4763 179.137 43.4612 179.137 44.5881C179.137 45.7055 178.919 46.688 178.483 47.5355C178.048 48.3783 177.427 49.0365 176.622 49.5099C175.822 49.9787 174.87 50.2131 173.767 50.2131ZM173.781 47.8693C174.283 47.8693 174.702 47.7273 175.039 47.4432C175.375 47.1544 175.628 46.7614 175.798 46.2642C175.974 45.767 176.061 45.2012 176.061 44.5668C176.061 43.9323 175.974 43.3665 175.798 42.8693C175.628 42.3722 175.375 41.9792 175.039 41.6903C174.702 41.4015 174.283 41.2571 173.781 41.2571C173.275 41.2571 172.849 41.4015 172.503 41.6903C172.162 41.9792 171.904 42.3722 171.729 42.8693C171.558 43.3665 171.473 43.9323 171.473 44.5668C171.473 45.2012 171.558 45.767 171.729 46.2642C171.904 46.7614 172.162 47.1544 172.503 47.4432C172.849 47.7273 173.275 47.8693 173.781 47.8693ZM186.906 39.0909V41.3636H180.337V39.0909H186.906ZM181.828 36.4773H184.854V46.6477C184.854 46.9271 184.896 47.1449 184.982 47.3011C185.067 47.4527 185.185 47.5592 185.337 47.6207C185.493 47.6823 185.673 47.7131 185.877 47.7131C186.019 47.7131 186.161 47.7012 186.303 47.6776C186.445 47.6491 186.554 47.6278 186.629 47.6136L187.105 49.8651C186.954 49.9124 186.741 49.9669 186.466 50.0284C186.191 50.0947 185.858 50.1349 185.465 50.1491C184.735 50.1776 184.096 50.0805 183.547 49.858C183.003 49.6354 182.579 49.2898 182.276 48.821C181.973 48.3523 181.824 47.7604 181.828 47.0455V36.4773ZM193.689 50.2131C192.586 50.2131 191.632 49.9787 190.827 49.5099C190.027 49.0365 189.409 48.3783 188.973 47.5355C188.538 46.688 188.32 45.7055 188.32 44.5881C188.32 43.4612 188.538 42.4763 188.973 41.6335C189.409 40.786 190.027 40.1278 190.827 39.6591C191.632 39.1856 192.586 38.9489 193.689 38.9489C194.792 38.9489 195.744 39.1856 196.544 39.6591C197.349 40.1278 197.969 40.786 198.405 41.6335C198.841 42.4763 199.058 43.4612 199.058 44.5881C199.058 45.7055 198.841 46.688 198.405 47.5355C197.969 48.3783 197.349 49.0365 196.544 49.5099C195.744 49.9787 194.792 50.2131 193.689 50.2131ZM193.703 47.8693C194.205 47.8693 194.624 47.7273 194.96 47.4432C195.297 47.1544 195.55 46.7614 195.72 46.2642C195.896 45.767 195.983 45.2012 195.983 44.5668C195.983 43.9323 195.896 43.3665 195.72 42.8693C195.55 42.3722 195.297 41.9792 194.96 41.6903C194.624 41.4015 194.205 41.2571 193.703 41.2571C193.197 41.2571 192.771 41.4015 192.425 41.6903C192.084 41.9792 191.826 42.3722 191.651 42.8693C191.48 43.3665 191.395 43.9323 191.395 44.5668C191.395 45.2012 191.48 45.767 191.651 46.2642C191.826 46.7614 192.084 47.1544 192.425 47.4432C192.771 47.7273 193.197 47.8693 193.703 47.8693ZM206.828 39.0909V41.3636H200.259V39.0909H206.828ZM201.75 36.4773H204.776V46.6477C204.776 46.9271 204.818 47.1449 204.904 47.3011C204.989 47.4527 205.107 47.5592 205.259 47.6207C205.415 47.6823 205.595 47.7131 205.798 47.7131C205.941 47.7131 206.083 47.7012 206.225 47.6776C206.367 47.6491 206.476 47.6278 206.551 47.6136L207.027 49.8651C206.876 49.9124 206.663 49.9669 206.388 50.0284C206.113 50.0947 205.78 50.1349 205.387 50.1491C204.657 50.1776 204.018 50.0805 203.469 49.858C202.924 49.6354 202.501 49.2898 202.198 48.821C201.895 48.3523 201.745 47.7604 201.75 47.0455V36.4773ZM210.667 54.0909C210.284 54.0909 209.924 54.0601 209.588 53.9986C209.256 53.9418 208.981 53.8684 208.764 53.7784L209.445 51.5199C209.801 51.6288 210.12 51.688 210.404 51.6974C210.693 51.7069 210.942 51.6406 211.15 51.4986C211.363 51.3565 211.536 51.1151 211.669 50.7741L211.846 50.3125L207.933 39.0909H211.115L213.373 47.1023H213.487L215.767 39.0909H218.97L214.73 51.179C214.526 51.7661 214.249 52.2775 213.899 52.7131C213.553 53.1534 213.115 53.492 212.585 53.7287C212.054 53.9702 211.415 54.0909 210.667 54.0909ZM220.518 54.0909V39.0909H223.501V40.9233H223.636C223.768 40.6297 223.96 40.3314 224.211 40.0284C224.467 39.7206 224.798 39.465 225.205 39.2614C225.617 39.053 226.129 38.9489 226.74 38.9489C227.535 38.9489 228.269 39.1572 228.941 39.5739C229.614 39.9858 230.151 40.6084 230.553 41.4418C230.956 42.2704 231.157 43.3097 231.157 44.5597C231.157 45.7765 230.961 46.804 230.568 47.642C230.179 48.4754 229.649 49.1075 228.977 49.5384C228.309 49.9645 227.561 50.1776 226.732 50.1776C226.145 50.1776 225.646 50.0805 225.234 49.8864C224.827 49.6922 224.493 49.4484 224.232 49.1548C223.972 48.8565 223.773 48.5559 223.636 48.2528H223.544V54.0909H220.518ZM223.48 44.5455C223.48 45.1941 223.57 45.7599 223.749 46.2429C223.929 46.7259 224.19 47.1023 224.531 47.3722C224.872 47.6373 225.286 47.7699 225.774 47.7699C226.266 47.7699 226.683 47.6349 227.024 47.3651C227.365 47.0904 227.623 46.7116 227.798 46.2287C227.978 45.741 228.068 45.1799 228.068 44.5455C228.068 43.9157 227.98 43.3617 227.805 42.8835C227.63 42.4053 227.372 42.0312 227.031 41.7614C226.69 41.4915 226.271 41.3565 225.774 41.3565C225.281 41.3565 224.865 41.4867 224.524 41.7472C224.187 42.0076 223.929 42.3769 223.749 42.8551C223.57 43.3333 223.48 43.8968 223.48 44.5455ZM238.146 50.2131C237.024 50.2131 236.058 49.9858 235.248 49.5312C234.443 49.072 233.823 48.4233 233.387 47.5852C232.952 46.7424 232.734 45.7457 232.734 44.5952C232.734 43.473 232.952 42.4882 233.387 41.6406C233.823 40.7931 234.436 40.1326 235.227 39.6591C236.022 39.1856 236.955 38.9489 238.025 38.9489C238.745 38.9489 239.415 39.0649 240.035 39.2969C240.66 39.5241 241.204 39.8674 241.669 40.3267C242.137 40.786 242.502 41.3636 242.762 42.0597C243.023 42.7509 243.153 43.5606 243.153 44.4886V45.3196H233.941V43.4446H240.305C240.305 43.009 240.21 42.6231 240.021 42.2869C239.831 41.9508 239.569 41.688 239.232 41.4986C238.901 41.3045 238.515 41.2074 238.075 41.2074C237.615 41.2074 237.208 41.3139 236.853 41.527C236.503 41.7353 236.228 42.017 236.029 42.3722C235.83 42.7225 235.729 43.1132 235.724 43.544V45.3267C235.724 45.8665 235.823 46.3329 236.022 46.7259C236.226 47.1188 236.512 47.4219 236.882 47.6349C237.251 47.848 237.689 47.9545 238.195 47.9545C238.532 47.9545 238.839 47.9072 239.119 47.8125C239.398 47.7178 239.637 47.5758 239.836 47.3864C240.035 47.197 240.186 46.965 240.291 46.6903L243.089 46.875C242.947 47.5473 242.656 48.1345 242.215 48.6364C241.78 49.1335 241.216 49.5218 240.525 49.8011C239.838 50.0758 239.045 50.2131 238.146 50.2131Z" fill="#3E7EAC"/>
<path d="M54 42.5C54 39.9804 55.0009 37.5641 56.7825 35.7825C58.5641 34.0009 60.9804 33 63.5 33C66.0196 33 68.4359 34.0009 70.2175 35.7825C71.9991 37.5641 73 39.9804 73 42.5C73 45.0196 71.9991 47.4359 70.2175 49.2175C68.4359 50.9991 66.0196 52 63.5 52C60.9804 52 58.5641 50.9991 56.7825 49.2175C55.0009 47.4359 54 45.0196 54 42.5V42.5Z" fill="#1ABCFE"/>
<path d="M35 61.5C35 58.9804 36.0009 56.5641 37.7825 54.7825C39.5641 53.0009 41.9804 52 44.5 52H54V61.5C54 64.0196 52.9991 66.4359 51.2175 68.2175C49.4359 69.9991 47.0196 71 44.5 71C41.9804 71 39.5641 69.9991 37.7825 68.2175C36.0009 66.4359 35 64.0196 35 61.5V61.5Z" fill="#0ACF83"/>
<path d="M54 14V33H63.5C66.0196 33 68.4359 31.9991 70.2175 30.2175C71.9991 28.4359 73 26.0196 73 23.5C73 20.9804 71.9991 18.5641 70.2175 16.7825C68.4359 15.0009 66.0196 14 63.5 14H54Z" fill="#FF7262"/>
<path d="M35 23.5C35 26.0196 36.0009 28.4359 37.7825 30.2175C39.5641 31.9991 41.9804 33 44.5 33H54V14H44.5C41.9804 14 39.5641 15.0009 37.7825 16.7825C36.0009 18.5641 35 20.9804 35 23.5V23.5Z" fill="#F24E1E"/>
<path d="M35 42.5C35 45.0196 36.0009 47.4359 37.7825 49.2175C39.5641 50.9991 41.9804 52 44.5 52H54V33H44.5C41.9804 33 39.5641 34.0009 37.7825 35.7825C36.0009 37.5641 35 39.9804 35 42.5V42.5Z" fill="#A259FF"/>
<defs>
<linearGradient id="paint0_linear_393_172" x1="139.627" y1="22.44" x2="139.716" y2="85.0005" gradientUnits="userSpaceOnUse">
<stop stop-color="#FBACA4"/>
<stop offset="1" stop-color="white"/>
</linearGradient>
</defs>
</svg>
